<?xml version="1.0" encoding="UTF-8"?>
<svg id="Layer_1" data-name="Layer 1" xmlns="http://www.w3.org/2000/svg" viewBox="0 0 745.46 105.21">
  <defs>
    <style>
      .cls-1, .cls-2 {
        stroke-width: 0px;
      }

      .cls-2 {
        fill: #93d500;
      }
    </style>
  </defs>
  <path class="cls-1" d="m0,103.48V2.17h17.22v101.31H0Z"/>
  <path class="cls-1" d="m35.02,103.48V30.39h15.77v10.56h.43c2.12-3.47,5.23-6.39,9.33-8.76,4.1-2.36,8.95-3.55,14.54-3.55,8.97,0,16.04,2.73,21.2,8.18,5.16,5.45,7.74,13.1,7.74,22.94v43.71h-15.92v-41.97c0-6.27-1.54-10.97-4.63-14.11-3.09-3.13-7.33-4.7-12.74-4.7-3.76,0-7.14.89-10.13,2.68-2.99,1.79-5.38,4.34-7.16,7.67-1.79,3.33-2.68,7.12-2.68,11.36v39.08h-15.77Z"/>
  <path class="cls-1" d="m122.72,103.48v-59.05h-9.41v-14.04h9.41v-15.92h15.92v15.92h22v14.04h-22v45.01h22.72v14.04h-38.64Z"/>
  <path class="cls-1" d="m206.52,105.21c-7.14,0-13.6-1.66-19.39-4.99-5.79-3.33-10.37-7.91-13.75-13.75-3.38-5.84-5.07-12.32-5.07-19.47s1.69-13.65,5.07-19.54c3.38-5.88,7.96-10.49,13.75-13.82,5.79-3.33,12.25-4.99,19.39-4.99s13.75,1.66,19.54,4.99c5.79,3.33,10.32,7.91,13.6,13.75,3.28,5.84,4.92,12.23,4.92,19.18v4.34h-60.06c.48,3.76,1.76,7.19,3.84,10.28,2.07,3.09,4.7,5.52,7.89,7.31,3.18,1.79,6.61,2.68,10.28,2.68,5.02,0,9.26-1.04,12.74-3.11,3.47-2.07,6.03-4.65,7.67-7.74h16.5c-2.41,6.95-6.73,12.83-12.95,17.66-6.22,4.83-14.21,7.24-23.95,7.24Zm21.13-45.44c-.48-3.09-1.66-5.93-3.55-8.54-1.88-2.6-4.34-4.68-7.38-6.22-3.04-1.54-6.44-2.32-10.2-2.32s-7.02.77-10.06,2.32c-3.04,1.54-5.52,3.62-7.45,6.22-1.93,2.61-3.28,5.45-4.05,8.54h42.69Z"/>
  <path class="cls-2" d="m256.88,103.48V2.17h15.77v87.27h16.64v14.04h-32.42Z"/>
  <path class="cls-2" d="m297.98,103.48v-14.04h16.64s0-87.27,0-87.27h15.77v101.31h-32.42Z"/>
  <path class="cls-1" d="m346.9,18.81c-2.6,0-4.87-.94-6.8-2.82-1.93-1.88-2.89-4.07-2.89-6.58s.96-4.7,2.89-6.58c1.93-1.88,4.2-2.82,6.8-2.82s5.02.94,6.95,2.82c1.93,1.88,2.89,4.08,2.89,6.58s-.97,4.7-2.89,6.58c-1.93,1.88-4.25,2.82-6.95,2.82Zm-7.81,84.66V30.39h15.77v73.09h-15.77Z"/>
  <path class="cls-1" d="m370.48,71.2v-14.33h53.12v14.33h-53.12Z"/>
  <path class="cls-1" d="m440.53,103.48V2.17h44.72c7.82,0,14.67,1.5,20.55,4.49,5.88,2.99,10.44,7.12,13.68,12.37,3.23,5.26,4.85,11.07,4.85,17.44s-1.62,12.3-4.85,17.51c-3.23,5.21-7.79,9.33-13.68,12.37-5.89,3.04-12.74,4.56-20.55,4.56h-27.5v32.56h-17.22Zm44.43-48.77c6.95,0,12.3-1.66,16.06-4.99s5.64-7.74,5.64-13.24-1.88-9.77-5.64-13.1-9.12-4.99-16.06-4.99h-27.21v36.33h27.21Z"/>
  <path class="cls-1" d="m564.56,105.21c-6.27,0-12.04-1.62-17.29-4.85-5.26-3.23-9.43-7.77-12.52-13.6-3.09-5.84-4.63-12.42-4.63-19.75s1.54-14.06,4.63-19.9c3.09-5.84,7.26-10.37,12.52-13.6,5.26-3.23,11.02-4.85,17.29-4.85,4.53,0,8.51.75,11.94,2.24,3.42,1.5,6.2,3.26,8.32,5.28,2.12,2.03,3.52,3.62,4.2,4.78h.43v-10.56h15.92v73.09h-15.92v-10.56h-.43c-.68,1.25-2.08,2.87-4.2,4.85-2.12,1.98-4.9,3.72-8.32,5.21-3.43,1.49-7.41,2.24-11.94,2.24Zm3.18-14.04c4.05,0,7.74-.99,11.07-2.97,3.33-1.98,5.93-4.8,7.82-8.47,1.88-3.67,2.82-7.91,2.82-12.74s-.94-9.21-2.82-12.88c-1.88-3.67-4.49-6.49-7.82-8.47-3.33-1.98-7.02-2.97-11.07-2.97s-7.58.99-10.85,2.97c-3.28,1.98-5.86,4.8-7.74,8.47-1.88,3.67-2.82,7.96-2.82,12.88s.94,9.07,2.82,12.74c1.88,3.67,4.46,6.49,7.74,8.47,3.28,1.98,6.9,2.97,10.85,2.97Z"/>
  <path class="cls-1" d="m621.58,103.48V30.39h15.78v11.29h.43c1.64-3.47,4.22-6.39,7.74-8.76,3.52-2.36,7.79-3.55,12.81-3.55h8.68v15.49h-9.7c-3.96,0-7.43.82-10.42,2.46-2.99,1.64-5.33,3.93-7.02,6.87-1.69,2.94-2.53,6.35-2.53,10.2v39.08h-15.78Z"/>
  <path class="cls-1" d="m676.43,103.48V2.17h15.78v56.44h11.58l21.42-28.22h18.09l-25.33,34.01,27.5,39.08h-18.81l-21.71-30.83h-12.74v30.83h-15.78Z"/>
</svg>