<?xml version="1.0" encoding="utf-8"?>
<!-- Generator: Adobe Illustrator 15.1.0, SVG Export Plug-In . SVG Version: 6.00 Build 0)  -->
<!DOCTYPE svg PUBLIC "-//W3C//DTD SVG 1.1//EN" "http://www.w3.org/Graphics/SVG/1.1/DTD/svg11.dtd">
<svg version="1.1" id="Logo" xmlns="http://www.w3.org/2000/svg" xmlns:xlink="http://www.w3.org/1999/xlink" x="0px" y="0px"
	 width="2409.449px" height="779.528px" viewBox="0 0 2409.449 779.528" enable-background="new 0 0 2409.449 779.528"
	 xml:space="preserve">
<g>
	<path fill="#182A47" d="M1872.754,124.228c0-29.656,32.385-54.21,71.5-54.21c40.443,0,72.756,24.554,72.756,54.21v475.924h250.125
		c39.098,0,71.447,24.519,71.447,54.103c0,30.702-32.35,55.237-71.447,55.237h-322.881c-39.115,0-71.5-24.535-71.5-55.237V124.228z"
		/>
	<path fill="#182A47" d="M1794.504,165.541c0,29.655-32.328,54.19-71.443,54.19c-24.291,0-44.502-8.148-57.984-21.488
		c-35.059-10.187-128.08-11.231-157.771-11.231c-25.619,0-101.104,1.045-142.893,8.185v96.123l384.264,116.55
		c27.016,8.185,45.828,28.628,45.828,51.073v162.629c0,88.966-207.658,87.921-287.199,87.921
		c-72.812,0-287.203,1.045-287.203-87.921c0-29.656,32.348-54.227,71.463-54.227c24.271,0,44.484,8.201,57.947,21.488
		c35.131,10.239,128.137,11.319,157.793,11.319c25.615,0,101.152-1.08,142.928-8.237v-96.071l-384.318-116.584
		c-26.965-8.186-45.812-28.61-45.812-51.128V165.541c0-88.968,207.66-87.94,287.203-87.94
		C1580.133,77.6,1794.504,76.573,1794.504,165.541"/>
	<path fill="#182A47" d="M711.706,654.254c0,30.702-32.384,55.255-72.828,55.255c-39.1,0-71.484-24.553-71.484-55.255V165.541
		c0-88.968,207.697-87.922,287.24-87.922c72.791,0,287.166-1.046,287.166,87.922v488.714c0,30.702-32.348,55.255-71.394,55.255
		c-40.463,0-72.844-24.553-72.844-55.255V195.196c-41.81-7.14-117.278-8.185-142.929-8.185c-25.618,0-101.156,1.045-142.928,8.185
		V654.254z"/>
	<path fill="#3094B4" d="M435.522,160.279c0,13.162-10.791,23.951-23.987,23.951H181.801c-13.144,0-23.95,10.753-23.95,23.969
		v238.414c0,13.162-7.228,15.943-16.016,6.165l-54.916-60.87c-8.859-9.779-16.053-28.521-16.053-41.756V121.181
		c0-13.163,10.81-23.952,23.953-23.952H411.5c13.197,0,23.95,10.789,23.988,23.952L435.522,160.279z M383.544,329.957
		c8.628,9.974,22.888,26.112,31.675,35.945l77.541,86.805c8.787,9.815,5.175,17.84-8.025,17.84h-70.931
		c-13.2,0-31.181-8.043-39.896-17.894L219.466,278.972c-8.806-9.833-5.137-17.911,8.041-17.911h72.103
		c13.178,0,31,8.15,39.666,18.088L383.544,329.957z"/>
</g>
</svg>
